<svg width="24" height="24" xmlns="http://www.w3.org/2000/svg">

 <g>
  <title>background</title>
  <rect fill="none" id="canvas_background" height="402" width="582" y="-1" x="-1"/>
 </g>
 <g>
  <title>Layer 1</title>
  <path id="svg_1" fill="#ffffff" d="m23.93848,22.25911l-11.5,-21.01866c-0.17578,-0.3206 -0.70118,-0.3206 -0.87696,0l-11.5,21.01866c-0.08496,0.15492 -0.08203,0.34356 0.00879,0.49556c0.08985,0.15199 0.25293,0.24533 0.42969,0.24533l23,0c0.17676,0 0.33984,-0.09334 0.42969,-0.24533c0.09082,-0.152 0.09375,-0.34064 0.00879,-0.49556zm-16.84473,-9.75911l9.8125,0l-4.90625,8.95898l-4.90625,-8.95898z"/>
  <path d="m10.666089,5.943142c0.048154,0.192616 0.388185,1.033977 0.626001,1.565002c0.365706,0.816592 0.56539,1.150587 0.698232,1.468694c0.079272,0.189826 0.127437,0.320052 0.144462,0.337077c0.017025,0.017025 0.034333,0.04423 0.096308,0c0.41941,-0.299327 0.517673,-0.839882 0.529693,-1.227924c0.011951,-0.385798 -0.168539,-0.746386 -0.337077,-1.059386l-0.192616,-0.264846l-0.168539,-0.192616l-0.048154,-0.048154" id="svg_17" fill-opacity="null" stroke-opacity="null" stroke-width="null" stroke="null" fill="none"/>
  <path d="m11.990322,6.496912c0.07223,0.361154 0.228977,0.615033 0.553769,1.757617c0.081431,0.286467 0.175906,0.696998 0.216693,0.963078c0.029411,0.191874 0.048154,0.313001 0.048154,0.337077l0,0.024077" id="svg_18" fill-opacity="null" stroke-opacity="null" stroke-width="null" stroke="null" fill="none"/>
 </g>
</svg>